#!OML:ASF E:\emotionWalksFemale\Project 1\Capture day 1\Session 1\Female1.ASF
:FULLY-SPECIFIED
:DEGREES
346
root 8.66463 8.01664 -3.0121 -182.945 -6.39982 -179.367
lowerback 55.8116 2.16398 2.86823
upperback 3.57831 1.10118 0.65831
thorax -17.5695 -1.08856 -0.67741
lowerneck -11.9897 -5.87969 -7.85101
upperneck -13.8165 -8.13605 9.25931
head -1.71832 -4.62919 4.27681
rclavicle -2.40529e-014 -3.77691e-015
rhumerus 10.9415 4.17917 -60.4473
rradius 31.7513
rwrist 30.0481
rhand -8.07623 -56.3495
rfingers 7.12502
rthumb 17.8355 -85.5517
lclavicle -2.40529e-014 -3.77691e-015
lhumerus 3.19251 -4.09632 69.262
lradius 32.3496
lwrist -11.3974
lhand -7.04606 -40.5544
lfingers 7.12502
lthumb 18.8265 -11.4455
rfemur -86.279 -10.1177 34.4688
rtibia 129.791
rfoot -41.0843 -21.4047
rtoes 23.3979
lfemur -91.6741 10.7482 -30.8561
ltibia 124.387
lfoot -33.0177 -6.67956
ltoes -14.0462
347
root 8.67827 7.8258 -3.08173 -183.317 -5.90384 -179.442
lowerback 56.2641 2.48469 2.43722
upperback 3.61773 1.12812 0.630343
thorax -17.5777 -1.0911 -0.512519
lowerneck -12.5625 -5.79557 -7.63321
upperneck -13.7717 -8.08862 8.95071
head -1.63612 -4.62499 4.10467
rclavicle -2.38542e-015 5.56597e-015
rhumerus 15.3014 4.19512 -59.176
rradius 31.9293
rwrist 28.8753
rhand -9.99375 -56.6436
rfingers 7.12502
rthumb 15.9897 -86.0036
lclavicle -2.38542e-015 5.56597e-015
lhumerus 8.02687 -6.2636 67.2094
lradius 32.6451
lwrist -11.3896
lhand -8.0536 -39.8698
lfingers 7.12502
lthumb 17.8573 -10.6697
rfemur -86.9869 -9.38463 35.1874
rtibia 131.604
rfoot -41.5042 -22.9544
rtoes 23.3386
lfemur -92.7357 12.6042 -31.6292
ltibia 126.383
lfoot -34.0342 -6.95016
ltoes -14.9293
348
root 8.70171 7.64599 -3.14968 -183.958 -5.50204 -179.2
lowerback 56.9389 2.71843 2.23879
upperback 3.6611 1.16987 0.673658
thorax -17.5909 -1.11709 -0.371984
lowerneck -12.7974 -5.70761 -7.63455
upperneck -13.9103 -8.002 9.01264
head -1.65028 -4.60295 4.12908
rclavicle 1.49089e-014 -6.75868e-015
rhumerus 19.6984 3.84402 -57.9823
rradius 32.1147
rwrist 28.3919
rhand -10.0354 -56.2005
rfingers 7.12502
rthumb 15.9496 -85.5638
lclavicle 1.49089e-014 -6.75868e-015
lhumerus 13.0885 -8.54646 64.297
lradius 32.727
lwrist -11.1013
lhand -8.95337 -41.2526
lfingers 7.12502
lthumb 16.9913 -11.9758
rfemur -87.1531 -8.34819 36.1986
rtibia 133.209
rfoot -42.2043 -24.2753
rtoes 23.7946
lfemur -93.6229 14.8866 -32.1008
ltibia 128.311
lfoot -35.0868 -7.39464
ltoes -16.084
349
root 8.72684 7.47305 -3.21498 -184.603 -5.25087 -178.893
lowerback 57.6004 2.84656 2.15282
upperback 3.70834 1.15525 0.737509
thorax -17.5909 -1.17194 -0.229739
lowerneck -13.1064 -5.54248 -7.59607
upperneck -13.9596 -7.81202 9.003
head -1.63545 -4.52479 4.12012
rclavicle 1.75924e-014 -1.43125e-014
rhumerus 24.2244 3.19725 -56.952
rradius 32.4264
rwrist 27.3467
rhand -8.73513 -57.4496
rfingers 7.12502
rthumb 17.2014 -86.7082
lclavicle 1.75924e-014 -1.43125e-014
lhumerus 18.3887 -10.6162 60.6623
lradius 32.7014
lwrist -10.4482
lhand -9.95955 -41.5289
lfingers 7.12502
lthumb 16.0226 -12.1715
rfemur -87.2123 -7.24316 37.2435
rtibia 134.769
rfoot -43.112 -25.3473
rtoes 25.2847
lfemur -94.5004 17.1875 -32.4858
ltibia 130.178
lfoot -36.0542 -8.11838
ltoes -16.2172
350
root 8.74583 7.3052 -3.27994 -185.096 -5.13784 -178.782
lowerback 58.159 2.86441 2.1257
upperback 3.70573 1.05518 0.662716
thorax -17.6369 -1.24715 -0.235544
lowerneck -13.4675 -5.37885 -7.27351
upperneck -13.9316 -7.66171 8.77124
head -1.60178 -4.47077 3.97167
rclavicle -2.87244e-014 -3.18055e-015
rhumerus 28.4771 2.49865 -55.9436
rradius 32.2898
rwrist 26.7649
rhand -9.38344 -56.8342
rfingers 7.12502
rthumb 16.5773 -86.1462
lclavicle -2.87244e-014 -3.18055e-015
lhumerus 23.7293 -12.0968 56.659
lradius 32.7686
lwrist -10.1731
lhand -9.48586 -41.5357
lfingers 7.12502
lthumb 16.4787 -12.2155
rfemur -87.3644 -6.2659 37.9944
rtibia 136.365
rfoot -43.9965 -26.577
rtoes 26.7189
lfemur -95.4231 19.1478 -33.1197
ltibia 131.926
lfoot -36.8968 -8.51666
ltoes -17.1304
351
root 8.76228 7.15072 -3.34018 -185.614 -5.25034 -178.887
lowerback 58.8402 2.7702 2.13942
upperback 3.68183 0.82752 0.50996
thorax -17.7139 -1.37513 -0.282177
lowerneck -13.8593 -5.29514 -7.16982
upperneck -13.8075 -7.56709 8.74784
head -1.50789 -4.43003 3.93044
rclavicle 3.72721e-015 6.36111e-015
rhumerus 32.5818 1.23041 -55.2642
rradius 32.1161
rwrist 27.4075
rhand -9.12442 -56.7785
rfingers 7.12502
rthumb 16.8267 -86.0694
lclavicle 3.72721e-015 6.36111e-015
lhumerus 28.9224 -12.9501 52.5866
lradius 32.6686
lwrist -11.4502
lhand -10.8328 -42.8661
lfingers 7.12502
lthumb 15.1815 -13.4431
rfemur -87.3948 -5.79736 38.539
rtibia 137.948
rfoot -45.1348 -27.7083
rtoes 27.7157
lfemur -96.076 20.5633 -33.911
ltibia 133.43
lfoot -37.7201 -8.63877
ltoes -17.8108
352
root 8.78168 7.01439 -3.40003 -186.254 -5.4443 -179.043
lowerback 59.5612 2.70946 2.02312
upperback 3.69984 0.539223 0.417638
thorax -17.742 -1.52913 -0.166869
lowerneck -13.8025 -5.12645 -7.20991
upperneck -13.9682 -7.35246 8.85538
head -1.58431 -4.33502 3.99724
rclavicle 7.97002e-015 -5.08143e-015
rhumerus 36.5255 0.518135 -54.2946
rradius 32.0816
rwrist 26.5501
rhand -10.6082 -56.2022
rfingers 7.12502
rthumb 15.3979 -85.6087
lclavicle 7.97002e-015 -5.08143e-015
lhumerus 33.6655 -12.2692 49.4439
lradius 32.8123
lwrist -13.4483
lhand -10.7744 -43.0882
lfingers 7.12502
lthumb 15.2379 -13.6694
rfemur -87.1414 -5.50063 39.0794
rtibia 139.374
rfoot -46.7198 -28.4624
rtoes 29.5288
lfemur -96.4391 21.9018 -34.6807
ltibia 134.755
lfoot -38.7547 -8.80739
ltoes -17.2347
